<?xml version="1.0" encoding="UTF-8"?>
<!DOCTYPE svg PUBLIC "-//W3C//DTD SVG 1.1//EN" "http://www.w3.org/Graphics/SVG/1.1/DTD/svg11.dtd">
<!-- Creator: CorelDRAW X8 -->
<svg xmlns="http://www.w3.org/2000/svg" xml:space="preserve" width="400px" height="340px" version="1.1"
     style="shape-rendering:geometricPrecision; text-rendering:geometricPrecision; image-rendering:optimizeQuality; fill-rule:evenodd; clip-rule:evenodd"
     viewBox="0 0 400 340">
 <defs>
  <style type="text/css">
   <![CDATA[
    .str1 {stroke:black;stroke-linecap:round;stroke-linejoin:round}
    .str0 {stroke:black;stroke-linecap:round;stroke-linejoin:round}
    .fil0 {fill:none}
    .fil3 {fill:none;fill-rule:nonzero}
    .fil1 {fill:#5B5B5B}
    .fil2 {fill:#4288E3}
   ]]>
  </style>
 </defs>
 <g id="Слой_x0020_1">
  <metadata id="CorelCorpID_0Corel-Layer"/>
  <rect class="fil0" width="400" height="340"/>
  <path class="fil0 str0" d="M125 40l76 0c1,0 3,-1 3,3l-3 36 0 0 -76 0 -3 -36c-1,-4 4,-3 3,-3z"/>
  <path class="fil1 str0" d="M124 40c0,0 0,1 0,1 0,1 1,2 4,2 2,0 3,-1 3,-2 0,0 0,-1 0,-1 0,1 -2,2 -3,2 -2,0 -4,-1 -4,-2z"/>
  <path class="fil0 str0" d="M128 39c-3,0 -4,0 -4,1 0,1 1,2 4,2 2,0 3,-1 3,-2 0,-1 -1,-1 -3,-1z"/>
  <path class="fil1 str0" d="M194 40c0,0 0,1 0,1 0,1 2,2 4,2 2,0 4,-1 4,-2 0,0 0,-1 0,-1 -1,1 -2,2 -4,2 -2,0 -3,-1 -4,-2z"/>
  <path class="fil0 str0" d="M198 39c-2,0 -4,0 -4,1 0,1 2,2 4,2 2,0 4,-1 4,-2 0,-1 -2,-1 -4,-1zm-70 -3l0 12m70 -12l0 12m-76 -2l82 0m-72 0l63 0 0 31 -1 2 -61 0 -1 -2 0 -31zm0 18l63 0m-48 -12c-7,0 -12,6 -12,12 0,7 5,12 12,12 6,0 11,-5 11,-12 0,-6 -5,-12 -11,-12zm32 0c-6,0 -11,6 -11,12 0,7 5,12 11,12 7,0 12,-5 12,-12 0,-6 -5,-12 -12,-12zm-32 -1l0 26m32 -26l0 26"/>
  <path class="fil1 str0" d="M129 83zm0 0l68 0 0 2 -68 0 0 -2z"/>
  <path class="fil0 str0" d="M129 83l-4 -4m72 4l4 -4m17 -1c4,0 7,-4 7,-8 0,-4 -3,-7 -7,-7 -4,0 -7,3 -7,7 0,4 3,8 7,8zm8 4c3,-3 6,-7 6,-12 0,-7 -7,-13 -14,-13 -8,0 -14,6 -14,13 0,5 3,9 6,11l0 4 16 0 0 -3zm-8 -22l0 42m-9 -32l17 0m-15 10l2 -1 10 0 2 1"/>
  <path class="fil1 str0" d="M210 83zm0 0l16 0 0 2 -16 0 0 -2z"/>
  <path class="fil0 str0" d="M123 115c0,-3 0,-6 0,-9 25,0 50,0 75,0 1,1 3,3 3,6l-67 0"/>
  <path class="fil0 str0" d="M123 109zm0 0l154 0 0 6 -154 0 0 -6z"/>
  <polyline class="fil0 str0" points="226,86 227,85 234,85 235,88 248,88 "/>
  <polyline class="fil0 str0" points="270,86 269,85 263,85 261,88 248,88 "/>
  <polyline class="fil0 str0" points="123,108 126,95 276,95 277,98 "/>
  <polyline class="fil0 str0" points="123,104 126,91 276,91 277,94 "/>
  <polyline class="fil0 str0" points="123,100 126,88 276,88 277,91 "/>
  <polyline class="fil0 str0" points="123,97 126,85 276,85 277,87 "/>
  <path class="fil0 str0" d="M134 115c0,-2 0,-6 -1,-9l0 8 1 0"/>
  <path class="fil0 str0" d="M278 106c-23,0 -46,0 -68,0 -2,1 -3,3 -3,6l67 0"/>
  <path class="fil0 str0" d="M274 115c0,-2 0,-6 1,-9l0 8 -1 0"/>
  <path class="fil0 str0" d="M275 224zm0 0l-1 0 0 5 1 0 0 -5z"/>
  <path class="fil0 str0" d="M277 245zm0 0l-2 0 0 -10 2 0 0 10z"/>
  <path class="fil0 str0" d="M277 224zm0 0l-2 0 0 11 2 0 0 -11z"/>
  <path class="fil2 str0" d="M145 225zm0 0l112 0 0 30 -112 0 0 -30z"/>
  <path class="fil0 str0" d="M356 239c3,0 6,-2 6,-5l0 -128c0,-2 -3,-5 -6,-5l0 138z"/>
  <path class="fil0 str0" d="M314 87l24 0c5,0 12,10 18,14 0,46 0,92 0,138 -6,4 -13,14 -17,14l-25 0c0,-55 0,-111 0,-166z"/>
  <path class="fil0 str0" d="M299 82zm0 0l12 0 0 2 -12 0 0 -2z"/>
  <path class="fil0 str0" d="M125 212zm0 0l150 0 0 3 -150 0 0 -3z"/>
  <path class="fil0 str0" d="M124 212zm0 0l153 0 0 3 -153 0 0 -3z"/>
  <path class="fil0 str0" d="M125 204zm0 0l150 0 0 2 -150 0 0 -2z"/>
  <path class="fil0 str0" d="M124 204zm0 0l153 0 0 2 -153 0 0 -2z"/>
  <path class="fil0 str0" d="M125 195zm0 0l150 0 0 2 -150 0 0 -2z"/>
  <path class="fil0 str0" d="M124 195zm0 0l153 0 0 2 -153 0 0 -2z"/>
  <path class="fil0 str0" d="M125 186zm0 0l150 0 0 2 -150 0 0 -2z"/>
  <path class="fil0 str0" d="M124 186zm0 0l153 0 0 2 -153 0 0 -2z"/>
  <path class="fil0 str0" d="M125 152zm0 0l150 0 0 2 -150 0 0 -2z"/>
  <path class="fil0 str0" d="M124 152zm0 0l153 0 0 2 -153 0 0 -2z"/>
  <path class="fil0 str0" d="M125 143zm0 0l150 0 0 2 -150 0 0 -2z"/>
  <path class="fil0 str0" d="M124 143zm0 0l153 0 0 2 -153 0 0 -2z"/>
  <path class="fil0 str0" d="M125 134zm0 0l150 0 0 3 -150 0 0 -3z"/>
  <path class="fil0 str0" d="M124 134zm0 0l153 0 0 3 -153 0 0 -3z"/>
  <path class="fil0 str0" d="M125 125zm0 0l150 0 0 3 -150 0 0 -3z"/>
  <path class="fil0 str0" d="M124 125zm0 0l153 0 0 3 -153 0 0 -3z"/>
  <line class="fil0 str0" x1="112" y1="116" x2="108" y2= "116" />
  <line class="fil0 str0" x1="112" y1="112" x2="108" y2= "112" />
  <line class="fil0 str0" x1="112" y1="110" x2="112" y2= "119" />
  <path class="fil0 str0" d="M113 110l-3 0c-1,0 -2,0 -2,1l0 7c0,0 1,1 2,1l3 0 0 -9z"/>
  <line class="fil0 str0" x1="121" y1="116" x2="113" y2= "116" />
  <line class="fil0 str0" x1="124" y1="114" x2="106" y2= "114" />
  <path class="fil0 str0" d="M113 106zm0 0l8 0 0 17 -8 0 0 -17z"/>
  <path class="fil0 str0" d="M123 112zm0 0l-2 0 0 5 2 0 0 -5z"/>
  <path class="fil0 str0" d="M123 123zm0 0l154 0 0 -8 -154 0 0 8z"/>
  <polyline class="fil0 str0" points="277,217 266,217 275,224 "/>
  <polyline class="fil0 str0" points="266,217 266,219 274,225 "/>
  <polyline class="fil0 str0" points="274,226 266,226 275,233 "/>
  <line class="fil0 str0" x1="134" y1="234" x2="145" y2= "234" />
  <line class="fil0 str0" x1="257" y1="234" x2="273" y2= "234" />
  <polyline class="fil0 str0" points="266,226 266,228 275,235 "/>
  <polyline class="fil0 str0" points="123,217 143,217 133,224 "/>
  <polyline class="fil0 str0" points="143,217 143,219 134,225 "/>
  <polyline class="fil0 str0" points="134,226 143,226 133,233 "/>
  <path class="fil0 str0" d="M84 156zm0 0l-3 0 0 28 3 0 0 -28z"/>
  <path class="fil0 str0" d="M84 194zm0 0l6 0 0 -49 -6 0 0 49z"/>
  <polygon class="fil0 str0" points="95,134 90,134 90,206 95,206 "/>
  <path class="fil0 str0" d="M100 138zm0 0l-5 0 0 64 5 0 0 -64z"/>
  <path class="fil0 str0" d="M100 130zm0 0l-5 0 0 79 5 0 0 -79z"/>
  <path class="fil0 str0" d="M100 102zm0 0l-5 0 0 136 5 0 0 -136z"/>
  <path class="fil0 str0" d="M104 97zm0 0l-9 0 0 145 9 0 0 -145z"/>
  <path class="fil0 str0" d="M36 156zm0 0l39 0 0 3 -39 0 0 -3z"/>
  <polygon class="fil0 str0" points="81,158 75,158 75,159 36,159 36,158 34,158 34,182 81,182 "/>
  <line class="fil0 str0" x1="368" y1="170" x2="28" y2= "170" />
  <line class="fil0 str0" x1="116" y1="242" x2="95" y2= "242" />
  <line class="fil0 str0" x1="116" y1="97" x2="95" y2= "97" />
  <line class="fil0 str0" x1="116" y1="242" x2="118" y2= "245" />
  <line class="fil0 str0" x1="116" y1="97" x2="118" y2= "96" />
  <line class="fil0 str0" x1="116" y1="234" x2="116" y2= "242" />
  <line class="fil0 str0" x1="116" y1="123" x2="116" y2= "215" />
  <line class="fil0 str0" x1="116" y1="97" x2="116" y2= "106" />
  <line class="fil0 str0" x1="118" y1="245" x2="122" y2= "245" />
  <line class="fil0 str0" x1="118" y1="235" x2="118" y2= "245" />
  <line class="fil0 str0" x1="118" y1="123" x2="118" y2= "215" />
  <path class="fil0 str0" d="M124 95c-2,1 -4,1 -6,1l0 10"/>
  <line class="fil0 str0" x1="122" y1="245" x2="122" y2= "228" />
  <line class="fil0 str0" x1="122" y1="223" x2="122" y2= "117" />
  <line class="fil0 str0" x1="122" y1="112" x2="122" y2= "95" />
  <path class="fil0 str0" d="M113 221zm0 0l-1 0 0 10 1 0 0 -10z"/>
  <path class="fil0 str0" d="M112 224l-3 0c-1,0 -1,0 -1,0l0 4c0,0 0,0 1,0l3 0 0 -4z"/>
  <path class="fil0 str0" d="M112 222l-3 0c-1,0 -1,0 -1,0l0 8c0,0 0,1 1,1l3 0c1,0 1,-1 1,-1l0 -8c0,0 0,0 -1,0z"/>
  <line class="fil0 str0" x1="104" y1="226" x2="124" y2= "226" />
  <path class="fil0 str0" d="M113 215zm0 0l8 0 0 20 -8 0 0 -20z"/>
  <path class="fil0 str0" d="M123 223zm0 0l-2 0 0 5 2 0 0 -5z"/>
  <line class="fil0 str0" x1="123" y1="217" x2="123" y2= "225" />
  <path class="fil0 str0" d="M133 225zm0 0l2 0 0 6 -2 0 0 -6z"/>
  <path class="fil0 str0" d="M133 235zm0 0l-10 0 0 -10 10 0 0 10z"/>
  <polyline class="fil0 str0" points="143,226 143,227 133,235 "/>
  <path class="fil3 str0" d="M162 178l108 0 0 2 -138 0 0 -2 30 0zm0 -18l-30 0 0 3 138 0 0 -3 -108 0zm0 9l-30 0 0 2 138 0 0 -2 -108 0zm4 -9l-37 0 0 3 143 0 0 -3 -106 0zm0 9l106 0 0 2 -143 0 0 -2 37 0zm0 9l106 0 0 2 -143 0 0 -2 37 0z"/>
  <path class="fil0 str0" d="M279 84l33 0c1,0 2,1 2,3l0 83 0 83c0,1 -1,2 -2,2l-33 0c-1,0 -2,-1 -2,-2l0 -83 0 -83c0,-2 1,-3 2,-3z"/>
  <path class="fil2 str0" d="M116 255zm0 0l168 0 0 14 -168 0 0 -14z"/>
  <line class="fil0 str0" x1="271" y1="248" x2="271" y2= "276" />
  <line class="fil0 str0" x1="129" y1="248" x2="129" y2= "276" />
  <g id="_168608686352">
   <line class="fil0 str1" x1="97" y1="269" x2="304" y2= "269" />
   <line class="fil0 str1" x1="214" y1="296" x2="186" y2= "269" />
   <line class="fil0 str1" x1="193" y1="289" x2="173" y2= "269" />
   <line class="fil0 str1" x1="173" y1="282" x2="159" y2= "269" />
   <line class="fil0 str1" x1="152" y1="276" x2="145" y2= "269" />
   <line class="fil0 str1" x1="159" y1="296" x2="131" y2= "269" />
   <line class="fil0 str1" x1="131" y1="282" x2="117" y2= "269" />
   <line class="fil0 str1" x1="159" y1="310" x2="138" y2= "289" />
   <line class="fil0 str1" x1="186" y1="310" x2="159" y2= "282" />
   <line class="fil0 str1" x1="173" y1="310" x2="166" y2= "303" />
   <line class="fil0 str1" x1="200" y1="310" x2="180" y2= "289" />
   <line class="fil0 str1" x1="242" y1="310" x2="221" y2= "289" />
   <line class="fil0 str1" x1="228" y1="310" x2="221" y2= "303" />
   <line class="fil0 str1" x1="214" y1="310" x2="200" y2= "296" />
   <line class="fil0 str1" x1="214" y1="282" x2="200" y2= "269" />
   <line class="fil0 str1" x1="262" y1="289" x2="242" y2= "269" />
   <line class="fil0 str1" x1="242" y1="282" x2="228" y2= "269" />
   <line class="fil0 str1" x1="221" y1="276" x2="214" y2= "269" />
   <line class="fil0 str1" x1="255" y1="310" x2="228" y2= "282" />
   <line class="fil0 str1" x1="269" y1="310" x2="249" y2= "289" />
   <line class="fil0 str1" x1="283" y1="310" x2="269" y2= "296" />
   <line class="fil0 str1" x1="304" y1="289" x2="283" y2= "269" />
   <line class="fil0 str1" x1="283" y1="282" x2="269" y2= "269" />
   <line class="fil0 str1" x1="262" y1="276" x2="255" y2= "269" />
   <line class="fil0 str1" x1="297" y1="310" x2="269" y2= "282" />
   <line class="fil0 str1" x1="304" y1="303" x2="290" y2= "289" />
   <line class="fil0 str1" x1="304" y1="276" x2="297" y2= "269" />
   <line class="fil0 str1" x1="111" y1="276" x2="104" y2= "269" />
   <line class="fil0 str1" x1="145" y1="310" x2="117" y2= "282" />
   <line class="fil0 str1" x1="117" y1="296" x2="97" y2= "276" />
   <line class="fil0 str1" x1="131" y1="310" x2="124" y2= "303" />
   <line class="fil0 str1" x1="117" y1="310" x2="97" y2= "289" />
   <line class="fil0 str1" x1="104" y1="310" x2="97" y2= "303" />
  </g>
  <path class="fil2 str0" d="M159 239zm0 0l5 0 0 16 -5 0 0 -16z"/>
  <path class="fil2 str0" d="M238 239zm0 0l5 0 0 16 -5 0 0 -16z"/>
  <polyline class="fil0 str1" points="244,238 244,239 237,239 237,238 "/>
  <polyline class="fil0 str1" points="165,238 165,239 158,239 158,238 "/>
  <line class="fil0 str0" x1="257" y1="245" x2="276" y2= "245" />
  <line class="fil0 str0" x1="122" y1="245" x2="145" y2= "245" />
  <line class="fil0 str0" x1="287" y1="110" x2="297" y2= "110" />
  <line class="fil0 str0" x1="292" y1="103" x2="292" y2= "115" />
  <path class="fil0 str0" d="M292 112c1,0 2,-1 2,-2 0,-2 -1,-3 -2,-3 -2,0 -3,1 -3,3 0,1 1,2 3,2z"/>
  <line class="fil0 str0" x1="287" y1="230" x2="297" y2= "230" />
  <line class="fil0 str0" x1="292" y1="225" x2="292" y2= "237" />
  <path class="fil0 str0" d="M292 233c1,0 2,-1 2,-3 0,-1 -1,-2 -2,-2 -2,0 -3,1 -3,2 0,2 1,3 3,3z"/>
 </g>
</svg>
